# xmcd CD database file
#
# Track frame offsets:
#	182
#	8902
#	19275
#	29272
#	38177
#	49535
#	59695
#	71245
#	79470
#	87605
#	99222
#	108987
#	119815
#	129317
#	144045
#	153240
#
# Disc length: 2188 seconds
#
# Revision: 0
# Processed by: cddbd v1.4PL0 Copyright (c) Steve Scherf et al.
# Submitted via: Feurio! 1.65 - http://www.feurio.com
#
DISCID=d8088a10
DTITLE=The Country Stars - Country Stars Star-Club Show 8
DYEAR=1965
DGENRE=Country
TTITLE0=Wildwood Flowers
TTITLE1=Heartbreak U.S.A.
TTITLE2=Baby I'm Ready
TTITLE3=Golden Slippers
TTITLE4=Valley Of The Moon
TTITLE5=Honky Tonk Girl
TTITLE6=Before This Day In
TTITLE7=Boil The Cabbage Down
TTITLE8=Nobody Loves You
TTITLE9=The Best Of All
TTITLE10=Doppeladler
TTITLE11=Lonesome Prison Blues
TTITLE12=Purchase Walk
TTITLE13=Greensleeves
TTITLE14=Busted
TTITLE15=My Grandfather's Clock
EXTD=
EXTT0=
EXTT1=
EXTT2=
EXTT3=
EXTT4=
EXTT5=
EXTT6=
EXTT7=
EXTT8=
EXTT9=
EXTT10=
EXTT11=
EXTT12=
EXTT13=
EXTT14=Bonus 1966
EXTT15=Bonus 1966
PLAYORDER=
